<svg viewBox="0 0 900 700" xmlns="http://www.w3.org/2000/svg">
  <rect width="900" height="700" fill="#0f0f23"/>
  
  <!-- Title -->
  <text x="450" y="40" font-family="Courier New, monospace" font-size="26" font-weight="bold" fill="#ffffff" text-anchor="middle">Subsets Generation</text>
  <text x="450" y="65" font-family="Courier New, monospace" font-size="16" fill="#888888" text-anchor="middle">Input: [1, 2, 3] → Power Set: 2³ = 8 subsets</text>
  
  <!-- Section Label -->
  <text x="50" y="100" font-family="Courier New, monospace" font-size="14" font-weight="bold" fill="#e94560">DECISION TREE (Include/Exclude)</text>
  
  <!-- Root Level -->
  <rect x="400" y="120" width="100" height="40" rx="6" fill="#3d1f0f" stroke="#f97316" stroke-width="2"/>
  <text x="450" y="146" font-family="Courier New, monospace" font-size="18" font-weight="bold" fill="#ffffff" text-anchor="middle">{ }</text>
  <text x="450" y="115" font-family="Courier New, monospace" font-size="11" fill="#888888" text-anchor="middle">start</text>
  
  <!-- Level 1 - Include/Exclude 1 -->
  <line x1="420" y1="160" x2="250" y2="200" stroke="#4ade80" stroke-width="2"/>
  <text x="310" y="180" font-family="Courier New, monospace" font-size="11" fill="#4ade80">+1</text>
  <line x1="480" y1="160" x2="650" y2="200" stroke="#ef4444" stroke-width="2"/>
  <text x="590" y="180" font-family="Courier New, monospace" font-size="11" fill="#ef4444">skip 1</text>
  
  <rect x="190" y="200" width="100" height="40" rx="6" fill="#0f2f1f" stroke="#4ade80" stroke-width="2"/>
  <text x="240" y="226" font-family="Courier New, monospace" font-size="16" font-weight="bold" fill="#ffffff" text-anchor="middle">{1}</text>
  
  <rect x="600" y="200" width="100" height="40" rx="6" fill="#1e3a5f" stroke="#3b82f6" stroke-width="2"/>
  <text x="650" y="226" font-family="Courier New, monospace" font-size="16" font-weight="bold" fill="#ffffff" text-anchor="middle">{ }</text>
  
  <!-- Level 2 - Include/Exclude 2 -->
  <line x1="210" y1="240" x2="120" y2="290" stroke="#4ade80" stroke-width="2"/>
  <line x1="270" y1="240" x2="340" y2="290" stroke="#ef4444" stroke-width="2"/>
  
  <line x1="620" y1="240" x2="540" y2="290" stroke="#4ade80" stroke-width="2"/>
  <line x1="680" y1="240" x2="760" y2="290" stroke="#ef4444" stroke-width="2"/>
  
  <rect x="70" y="290" width="100" height="40" rx="6" fill="#0f2f1f" stroke="#4ade80" stroke-width="2"/>
  <text x="120" y="316" font-family="Courier New, monospace" font-size="14" font-weight="bold" fill="#ffffff" text-anchor="middle">{1,2}</text>
  
  <rect x="290" y="290" width="100" height="40" rx="6" fill="#1e3a5f" stroke="#3b82f6" stroke-width="2"/>
  <text x="340" y="316" font-family="Courier New, monospace" font-size="14" font-weight="bold" fill="#ffffff" text-anchor="middle">{1}</text>
  
  <rect x="490" y="290" width="100" height="40" rx="6" fill="#0f2f1f" stroke="#4ade80" stroke-width="2"/>
  <text x="540" y="316" font-family="Courier New, monospace" font-size="14" font-weight="bold" fill="#ffffff" text-anchor="middle">{2}</text>
  
  <rect x="710" y="290" width="100" height="40" rx="6" fill="#1e3a5f" stroke="#3b82f6" stroke-width="2"/>
  <text x="760" y="316" font-family="Courier New, monospace" font-size="14" font-weight="bold" fill="#ffffff" text-anchor="middle">{ }</text>
  
  <!-- Level 3 - Include/Exclude 3 -->
  <line x1="90" y1="330" x2="50" y2="380" stroke="#4ade80" stroke-width="2"/>
  <line x1="150" y1="330" x2="170" y2="380" stroke="#ef4444" stroke-width="2"/>
  
  <line x1="310" y1="330" x2="270" y2="380" stroke="#4ade80" stroke-width="2"/>
  <line x1="370" y1="330" x2="390" y2="380" stroke="#ef4444" stroke-width="2"/>
  
  <line x1="510" y1="330" x2="490" y2="380" stroke="#4ade80" stroke-width="2"/>
  <line x1="570" y1="330" x2="590" y2="380" stroke="#ef4444" stroke-width="2"/>
  
  <line x1="730" y1="330" x2="710" y2="380" stroke="#4ade80" stroke-width="2"/>
  <line x1="790" y1="330" x2="810" y2="380" stroke="#ef4444" stroke-width="2"/>
  
  <!-- Final Subsets (Leaf Nodes) -->
  <rect x="20" y="380" width="80" height="35" rx="6" fill="#0f2f1f" stroke="#4ade80" stroke-width="2"/>
  <text x="60" y="403" font-family="Courier New, monospace" font-size="12" font-weight="bold" fill="#4ade80" text-anchor="middle">{1,2,3}</text>
  
  <rect x="130" y="380" width="80" height="35" rx="6" fill="#0f2f1f" stroke="#4ade80" stroke-width="2"/>
  <text x="170" y="403" font-family="Courier New, monospace" font-size="12" font-weight="bold" fill="#4ade80" text-anchor="middle">{1,2}</text>
  
  <rect x="230" y="380" width="80" height="35" rx="6" fill="#0f2f1f" stroke="#4ade80" stroke-width="2"/>
  <text x="270" y="403" font-family="Courier New, monospace" font-size="12" font-weight="bold" fill="#4ade80" text-anchor="middle">{1,3}</text>
  
  <rect x="350" y="380" width="80" height="35" rx="6" fill="#0f2f1f" stroke="#4ade80" stroke-width="2"/>
  <text x="390" y="403" font-family="Courier New, monospace" font-size="12" font-weight="bold" fill="#4ade80" text-anchor="middle">{1}</text>
  
  <rect x="450" y="380" width="80" height="35" rx="6" fill="#0f2f1f" stroke="#4ade80" stroke-width="2"/>
  <text x="490" y="403" font-family="Courier New, monospace" font-size="12" font-weight="bold" fill="#4ade80" text-anchor="middle">{2,3}</text>
  
  <rect x="550" y="380" width="80" height="35" rx="6" fill="#0f2f1f" stroke="#4ade80" stroke-width="2"/>
  <text x="590" y="403" font-family="Courier New, monospace" font-size="12" font-weight="bold" fill="#4ade80" text-anchor="middle">{2}</text>
  
  <rect x="670" y="380" width="80" height="35" rx="6" fill="#0f2f1f" stroke="#4ade80" stroke-width="2"/>
  <text x="710" y="403" font-family="Courier New, monospace" font-size="12" font-weight="bold" fill="#4ade80" text-anchor="middle">{3}</text>
  
  <rect x="770" y="380" width="80" height="35" rx="6" fill="#0f2f1f" stroke="#4ade80" stroke-width="2"/>
  <text x="810" y="403" font-family="Courier New, monospace" font-size="12" font-weight="bold" fill="#4ade80" text-anchor="middle">{ }</text>
  
  <!-- Binary Representation Section -->
  <text x="50" y="470" font-family="Courier New, monospace" font-size="14" font-weight="bold" fill="#e94560">BINARY MASK REPRESENTATION</text>
  
  <rect x="50" y="490" width="800" height="100" rx="6" fill="#1e3a5f" stroke="#3b82f6" stroke-width="1"/>
  
  <!-- Binary table header -->
  <text x="100" y="515" font-family="Courier New, monospace" font-size="12" fill="#a78bfa">Mask</text>
  <text x="180" y="515" font-family="Courier New, monospace" font-size="12" fill="#a78bfa">Binary</text>
  <text x="280" y="515" font-family="Courier New, monospace" font-size="12" fill="#a78bfa">Subset</text>
  
  <text x="380" y="515" font-family="Courier New, monospace" font-size="12" fill="#a78bfa">Mask</text>
  <text x="460" y="515" font-family="Courier New, monospace" font-size="12" fill="#a78bfa">Binary</text>
  <text x="560" y="515" font-family="Courier New, monospace" font-size="12" fill="#a78bfa">Subset</text>
  
  <!-- Binary table rows - left column -->
  <text x="100" y="540" font-family="Courier New, monospace" font-size="12" fill="#ffffff">0</text>
  <text x="180" y="540" font-family="Courier New, monospace" font-size="12" fill="#888888">000</text>
  <text x="280" y="540" font-family="Courier New, monospace" font-size="12" fill="#4ade80">{ }</text>
  
  <text x="100" y="560" font-family="Courier New, monospace" font-size="12" fill="#ffffff">1</text>
  <text x="180" y="560" font-family="Courier New, monospace" font-size="12" fill="#888888">001</text>
  <text x="280" y="560" font-family="Courier New, monospace" font-size="12" fill="#4ade80">{1}</text>
  
  <text x="100" y="580" font-family="Courier New, monospace" font-size="12" fill="#ffffff">2</text>
  <text x="180" y="580" font-family="Courier New, monospace" font-size="12" fill="#888888">010</text>
  <text x="280" y="580" font-family="Courier New, monospace" font-size="12" fill="#4ade80">{2}</text>
  
  <text x="380" y="540" font-family="Courier New, monospace" font-size="12" fill="#ffffff">3</text>
  <text x="460" y="540" font-family="Courier New, monospace" font-size="12" fill="#888888">011</text>
  <text x="560" y="540" font-family="Courier New, monospace" font-size="12" fill="#4ade80">{1,2}</text>
  
  <text x="380" y="560" font-family="Courier New, monospace" font-size="12" fill="#ffffff">4</text>
  <text x="460" y="560" font-family="Courier New, monospace" font-size="12" fill="#888888">100</text>
  <text x="560" y="560" font-family="Courier New, monospace" font-size="12" fill="#4ade80">{3}</text>
  
  <text x="380" y="580" font-family="Courier New, monospace" font-size="12" fill="#ffffff">5-7</text>
  <text x="460" y="580" font-family="Courier New, monospace" font-size="12" fill="#888888">...</text>
  <text x="560" y="580" font-family="Courier New, monospace" font-size="12" fill="#4ade80">{1,3},{2,3},{1,2,3}</text>
  
  <!-- Complexity info -->
  <rect x="680" y="510" width="150" height="60" rx="6" fill="#2d1f3d" stroke="#a78bfa" stroke-width="2"/>
  <text x="755" y="535" font-family="Courier New, monospace" font-size="12" font-weight="bold" fill="#a78bfa" text-anchor="middle">Complexity</text>
  <text x="755" y="555" font-family="Courier New, monospace" font-size="14" fill="#60a5fa" text-anchor="middle">Time: O(n × 2ⁿ)</text>
  
  <!-- Result section -->
  <text x="50" y="620" font-family="Courier New, monospace" font-size="14" font-weight="bold" fill="#e94560">RESULT</text>
  <text x="50" y="650" font-family="Courier New, monospace" font-size="14" font-weight="bold" fill="#4ade80">[[ ], [1], [2], [3], [1,2], [1,3], [2,3], [1,2,3]]</text>
  <text x="50" y="680" font-family="Courier New, monospace" font-size="12" fill="#60a5fa">|P(S)| = 2ⁿ = 8 subsets</text>
</svg>
