<svg viewBox="0 0 950 620" xmlns="http://www.w3.org/2000/svg">
  <defs>
    <style>
      .title { font: bold 26px 'Courier New', monospace; fill: #ffffff; }
      .subtitle { font: 16px 'Courier New', monospace; fill: #888888; }
      .section-label { font: bold 14px 'Courier New', monospace; fill: #e94560; }
      .node-text { font: bold 18px 'Courier New', monospace; fill: #ffffff; }
      .small-label { font: 11px 'Courier New', monospace; fill: #888888; }
      .result-text { font: bold 14px 'Courier New', monospace; fill: #4ade80; }
      .info-text { font: 13px 'Courier New', monospace; fill: #ffffff; }
      .complexity { font: 12px 'Courier New', monospace; fill: #60a5fa; }
      .level-label { font: bold 12px 'Courier New', monospace; }
    </style>
  </defs>

  <!-- Background -->
  <rect width="950" height="620" fill="#0f0f23"/>

  <!-- Title -->
  <text x="475" y="35" text-anchor="middle" class="title">🌳 Level-Order Tree Traversal (BFS)</text>
  <text x="475" y="60" text-anchor="middle" class="subtitle">Binary Tree BFS - Process nodes level by level</text>

  <!-- Tree Edges -->
  <g stroke="#888888" stroke-width="2">
    <!-- Level 0 to Level 1 -->
    <line x1="320" y1="120" x2="200" y2="190"/>
    <line x1="320" y1="120" x2="440" y2="190"/>
    
    <!-- Level 1 to Level 2 -->
    <line x1="200" y1="210" x2="130" y2="280"/>
    <line x1="200" y1="210" x2="270" y2="280"/>
    <line x1="440" y1="210" x2="370" y2="280"/>
    <line x1="440" y1="210" x2="510" y2="280"/>
    
    <!-- Level 2 to Level 3 -->
    <line x1="130" y1="300" x2="90" y2="360"/>
    <line x1="130" y1="300" x2="170" y2="360"/>
    <line x1="270" y1="300" x2="230" y2="360"/>
  </g>

  <!-- Tree Nodes -->
  <!-- Level 0 -->
  <circle cx="320" cy="100" r="28" fill="#ef4444" stroke="#fca5a5" stroke-width="2"/>
  <text x="320" y="107" text-anchor="middle" class="node-text">1</text>

  <!-- Level 1 -->
  <circle cx="200" cy="190" r="28" fill="#f97316" stroke="#fdba74" stroke-width="2"/>
  <text x="200" y="197" text-anchor="middle" class="node-text">2</text>

  <circle cx="440" cy="190" r="28" fill="#f97316" stroke="#fdba74" stroke-width="2"/>
  <text x="440" y="197" text-anchor="middle" class="node-text">3</text>

  <!-- Level 2 -->
  <circle cx="130" cy="280" r="28" fill="#4ade80" stroke="#86efac" stroke-width="2"/>
  <text x="130" y="287" text-anchor="middle" class="node-text">4</text>

  <circle cx="270" cy="280" r="28" fill="#4ade80" stroke="#86efac" stroke-width="2"/>
  <text x="270" y="287" text-anchor="middle" class="node-text">5</text>

  <circle cx="370" cy="280" r="28" fill="#4ade80" stroke="#86efac" stroke-width="2"/>
  <text x="370" y="287" text-anchor="middle" class="node-text">6</text>

  <circle cx="510" cy="280" r="28" fill="#4ade80" stroke="#86efac" stroke-width="2"/>
  <text x="510" y="287" text-anchor="middle" class="node-text">7</text>

  <!-- Level 3 -->
  <circle cx="90" cy="370" r="28" fill="#a78bfa" stroke="#c4b5fd" stroke-width="2"/>
  <text x="90" y="377" text-anchor="middle" class="node-text">8</text>

  <circle cx="170" cy="370" r="28" fill="#a78bfa" stroke="#c4b5fd" stroke-width="2"/>
  <text x="170" y="377" text-anchor="middle" class="node-text">9</text>

  <circle cx="230" cy="370" r="26" fill="#a78bfa" stroke="#c4b5fd" stroke-width="2"/>
  <text x="230" y="377" text-anchor="middle" class="node-text">10</text>

  <!-- Level Labels (Right Side) -->
  <text x="580" y="100" class="level-label" fill="#ef4444">Level 0: [1]</text>
  <text x="580" y="190" class="level-label" fill="#f97316">Level 1: [2, 3]</text>
  <text x="580" y="280" class="level-label" fill="#4ade80">Level 2: [4, 5, 6, 7]</text>
  <text x="580" y="370" class="level-label" fill="#a78bfa">Level 3: [8, 9, 10]</text>

  <!-- Output Array -->
  <rect x="50" y="420" width="560" height="80" rx="8" fill="#1a1a2e" stroke="#3b82f6" stroke-width="2"/>
  <text x="330" y="450" text-anchor="middle" class="section-label">Output: Level-Order Array</text>

  <g transform="translate(70, 465)">
    <rect x="0" y="0" width="32" height="25" rx="4" fill="#ef4444"/>
    <text x="16" y="18" text-anchor="middle" class="info-text">1</text>
    
    <rect x="40" y="0" width="32" height="25" rx="4" fill="#f97316"/>
    <text x="56" y="18" text-anchor="middle" class="info-text">2</text>
    
    <rect x="80" y="0" width="32" height="25" rx="4" fill="#f97316"/>
    <text x="96" y="18" text-anchor="middle" class="info-text">3</text>
    
    <rect x="120" y="0" width="32" height="25" rx="4" fill="#4ade80"/>
    <text x="136" y="18" text-anchor="middle" class="info-text">4</text>
    
    <rect x="160" y="0" width="32" height="25" rx="4" fill="#4ade80"/>
    <text x="176" y="18" text-anchor="middle" class="info-text">5</text>
    
    <rect x="200" y="0" width="32" height="25" rx="4" fill="#4ade80"/>
    <text x="216" y="18" text-anchor="middle" class="info-text">6</text>
    
    <rect x="240" y="0" width="32" height="25" rx="4" fill="#4ade80"/>
    <text x="256" y="18" text-anchor="middle" class="info-text">7</text>
    
    <rect x="280" y="0" width="32" height="25" rx="4" fill="#a78bfa"/>
    <text x="296" y="18" text-anchor="middle" class="info-text">8</text>
    
    <rect x="320" y="0" width="32" height="25" rx="4" fill="#a78bfa"/>
    <text x="336" y="18" text-anchor="middle" class="info-text">9</text>
    
    <rect x="360" y="0" width="40" height="25" rx="4" fill="#a78bfa"/>
    <text x="380" y="18" text-anchor="middle" class="info-text">10</text>
  </g>

  <!-- Code Hint -->
  <rect x="640" y="420" width="280" height="80" rx="8" fill="#1a1a2e" stroke="#60a5fa" stroke-width="2"/>
  <text x="780" y="450" text-anchor="middle" class="section-label" fill="#60a5fa">Level Separation</text>
  <text x="660" y="475" class="complexity">level_size = len(queue)</text>
  <text x="660" y="495" class="complexity">for _ in range(level_size):</text>

  <!-- Algorithm Box -->
  <rect x="50" y="520" width="400" height="80" rx="8" fill="#1a1a2e" stroke="#4ade80" stroke-width="2"/>
  <text x="250" y="550" text-anchor="middle" class="section-label" fill="#4ade80">Algorithm Steps</text>
  <text x="70" y="575" class="info-text">1. Enqueue root</text>
  <text x="70" y="595" class="info-text">2. Process level_size nodes, enqueue children</text>

  <!-- Use Cases Box -->
  <rect x="480" y="520" width="440" height="80" rx="8" fill="#1a1a2e" stroke="#a78bfa" stroke-width="2"/>
  <text x="700" y="550" text-anchor="middle" class="section-label" fill="#a78bfa">Related Problems</text>
  <text x="500" y="575" class="info-text">• Zigzag Level Order (#103)</text>
  <text x="500" y="595" class="info-text">• Right Side View (#199)</text>
  <text x="720" y="575" class="info-text">• Min Depth (#111)</text>
  <text x="720" y="595" class="info-text">• Avg of Levels (#637)</text>

  <!-- Footer -->
  <text x="475" y="615" text-anchor="middle" class="complexity">Time: O(n) | Space: O(n) | Key: Track queue size at each level start</text>
</svg>
