<svg xmlns="http://www.w3.org/2000/svg" viewBox="0 0 900 550">
  <defs>
    <linearGradient id="bg2" x1="0%" y1="0%" x2="100%" y2="100%">
      <stop offset="0%" style="stop-color:#0f0f23"/>
      <stop offset="100%" style="stop-color:#1a1a3e"/>
    </linearGradient>
    <linearGradient id="rightArrow" x1="0%" y1="0%" x2="100%" y2="0%">
      <stop offset="0%" style="stop-color:#00ff88"/>
      <stop offset="100%" style="stop-color:#00cc6a"/>
    </linearGradient>
    <linearGradient id="downArrow" x1="0%" y1="0%" x2="0%" y2="100%">
      <stop offset="0%" style="stop-color:#ff6b6b"/>
      <stop offset="100%" style="stop-color:#cc5555"/>
    </linearGradient>
    <linearGradient id="leftArrow" x1="100%" y1="0%" x2="0%" y2="0%">
      <stop offset="0%" style="stop-color:#4ecdc4"/>
      <stop offset="100%" style="stop-color:#3eb5ad"/>
    </linearGradient>
    <linearGradient id="upArrow" x1="0%" y1="100%" x2="0%" y2="0%">
      <stop offset="0%" style="stop-color:#ffd93d"/>
      <stop offset="100%" style="stop-color:#ccad31"/>
    </linearGradient>
    <filter id="glow">
      <feGaussianBlur stdDeviation="2" result="coloredBlur"/>
      <feMerge>
        <feMergeNode in="coloredBlur"/>
        <feMergeNode in="SourceGraphic"/>
      </feMerge>
    </filter>
  </defs>
  
  <!-- Background -->
  <rect width="900" height="550" fill="url(#bg2)"/>
  
  <!-- Title -->
  <text x="450" y="35" text-anchor="middle" font-family="Segoe UI, Arial" font-size="24" font-weight="bold" fill="#00ff88">
    Spiral Matrix Traversal
  </text>
  <text x="450" y="58" text-anchor="middle" font-family="Segoe UI, Arial" font-size="14" fill="#8892b0">
    Direction Sequence: → Right → Down → Left → Up → Repeat
  </text>
  
  <!-- Main Matrix 4x4 -->
  <g transform="translate(80, 90)">
    <text x="100" y="0" text-anchor="middle" font-family="Segoe UI, Arial" font-size="16" font-weight="bold" fill="#ffd93d">4×4 Matrix with Spiral Path</text>
    
    <!-- Grid cells -->
    <g>
      <!-- Row 0 -->
      <rect x="0" y="20" width="50" height="50" rx="5" fill="#1e3a5f" stroke="#00ff88" stroke-width="3"/>
      <rect x="50" y="20" width="50" height="50" rx="5" fill="#1e3a5f" stroke="#00ff88" stroke-width="3"/>
      <rect x="100" y="20" width="50" height="50" rx="5" fill="#1e3a5f" stroke="#00ff88" stroke-width="3"/>
      <rect x="150" y="20" width="50" height="50" rx="5" fill="#1e3a5f" stroke="#ff6b6b" stroke-width="3"/>
      
      <!-- Row 1 -->
      <rect x="0" y="70" width="50" height="50" rx="5" fill="#1e3a5f" stroke="#ffd93d" stroke-width="3"/>
      <rect x="50" y="70" width="50" height="50" rx="5" fill="#2a4a6f" stroke="#64ffda" stroke-width="2"/>
      <rect x="100" y="70" width="50" height="50" rx="5" fill="#2a4a6f" stroke="#64ffda" stroke-width="2"/>
      <rect x="150" y="70" width="50" height="50" rx="5" fill="#1e3a5f" stroke="#ff6b6b" stroke-width="3"/>
      
      <!-- Row 2 -->
      <rect x="0" y="120" width="50" height="50" rx="5" fill="#1e3a5f" stroke="#ffd93d" stroke-width="3"/>
      <rect x="50" y="120" width="50" height="50" rx="5" fill="#2a4a6f" stroke="#64ffda" stroke-width="2"/>
      <rect x="100" y="120" width="50" height="50" rx="5" fill="#2a4a6f" stroke="#64ffda" stroke-width="2"/>
      <rect x="150" y="120" width="50" height="50" rx="5" fill="#1e3a5f" stroke="#ff6b6b" stroke-width="3"/>
      
      <!-- Row 3 -->
      <rect x="0" y="170" width="50" height="50" rx="5" fill="#1e3a5f" stroke="#4ecdc4" stroke-width="3"/>
      <rect x="50" y="170" width="50" height="50" rx="5" fill="#1e3a5f" stroke="#4ecdc4" stroke-width="3"/>
      <rect x="100" y="170" width="50" height="50" rx="5" fill="#1e3a5f" stroke="#4ecdc4" stroke-width="3"/>
      <rect x="150" y="170" width="50" height="50" rx="5" fill="#1e3a5f" stroke="#4ecdc4" stroke-width="3"/>
    </g>
    
    <!-- Numbers with order -->
    <text x="25" y="53" text-anchor="middle" font-family="Consolas" font-size="18" font-weight="bold" fill="white">1</text>
    <text x="75" y="53" text-anchor="middle" font-family="Consolas" font-size="18" font-weight="bold" fill="white">2</text>
    <text x="125" y="53" text-anchor="middle" font-family="Consolas" font-size="18" font-weight="bold" fill="white">3</text>
    <text x="175" y="53" text-anchor="middle" font-family="Consolas" font-size="18" font-weight="bold" fill="white">4</text>
    
    <text x="25" y="103" text-anchor="middle" font-family="Consolas" font-size="18" font-weight="bold" fill="white">12</text>
    <text x="75" y="103" text-anchor="middle" font-family="Consolas" font-size="18" font-weight="bold" fill="#64ffda">13</text>
    <text x="125" y="103" text-anchor="middle" font-family="Consolas" font-size="18" font-weight="bold" fill="#64ffda">14</text>
    <text x="175" y="103" text-anchor="middle" font-family="Consolas" font-size="18" font-weight="bold" fill="white">5</text>
    
    <text x="25" y="153" text-anchor="middle" font-family="Consolas" font-size="18" font-weight="bold" fill="white">11</text>
    <text x="75" y="153" text-anchor="middle" font-family="Consolas" font-size="18" font-weight="bold" fill="#64ffda">16</text>
    <text x="125" y="153" text-anchor="middle" font-family="Consolas" font-size="18" font-weight="bold" fill="#64ffda">15</text>
    <text x="175" y="153" text-anchor="middle" font-family="Consolas" font-size="18" font-weight="bold" fill="white">6</text>
    
    <text x="25" y="203" text-anchor="middle" font-family="Consolas" font-size="18" font-weight="bold" fill="white">10</text>
    <text x="75" y="203" text-anchor="middle" font-family="Consolas" font-size="18" font-weight="bold" fill="white">9</text>
    <text x="125" y="203" text-anchor="middle" font-family="Consolas" font-size="18" font-weight="bold" fill="white">8</text>
    <text x="175" y="203" text-anchor="middle" font-family="Consolas" font-size="18" font-weight="bold" fill="white">7</text>
    
    <!-- Spiral path arrows -->
    <g filter="url(#glow)">
      <!-- Right arrow (top) -->
      <path d="M 15 30 L 160 30" stroke="#00ff88" stroke-width="3" fill="none" stroke-dasharray="5,3"/>
      <polygon points="165,30 155,25 155,35" fill="#00ff88"/>
      
      <!-- Down arrow (right) -->
      <path d="M 180 40 L 180 180" stroke="#ff6b6b" stroke-width="3" fill="none" stroke-dasharray="5,3"/>
      <polygon points="180,185 175,175 185,175" fill="#ff6b6b"/>
      
      <!-- Left arrow (bottom) -->
      <path d="M 170 200 L 30 200" stroke="#4ecdc4" stroke-width="3" fill="none" stroke-dasharray="5,3"/>
      <polygon points="25,200 35,195 35,205" fill="#4ecdc4"/>
      
      <!-- Up arrow (left) -->
      <path d="M 15 185 L 15 90" stroke="#ffd93d" stroke-width="3" fill="none" stroke-dasharray="5,3"/>
      <polygon points="15,85 10,95 20,95" fill="#ffd93d"/>
    </g>
  </g>
  
  <!-- Boundary Explanation -->
  <g transform="translate(320, 90)">
    <rect x="0" y="0" width="250" height="230" rx="10" fill="rgba(0, 255, 136, 0.05)" stroke="#00ff88" stroke-width="1"/>
    <text x="125" y="25" text-anchor="middle" font-family="Segoe UI, Arial" font-size="16" font-weight="bold" fill="#00ff88">Boundary Variables</text>
    
    <text x="20" y="55" font-family="Consolas" font-size="14" fill="#00ff88">top = 0</text>
    <text x="130" y="55" font-family="Segoe UI, Arial" font-size="12" fill="#8892b0">→ current top row</text>
    
    <text x="20" y="85" font-family="Consolas" font-size="14" fill="#4ecdc4">bottom = 3</text>
    <text x="130" y="85" font-family="Segoe UI, Arial" font-size="12" fill="#8892b0">→ current bottom row</text>
    
    <text x="20" y="115" font-family="Consolas" font-size="14" fill="#ffd93d">left = 0</text>
    <text x="130" y="115" font-family="Segoe UI, Arial" font-size="12" fill="#8892b0">→ current left col</text>
    
    <text x="20" y="145" font-family="Consolas" font-size="14" fill="#ff6b6b">right = 3</text>
    <text x="130" y="145" font-family="Segoe UI, Arial" font-size="12" fill="#8892b0">→ current right col</text>
    
    <line x1="20" y1="165" x2="230" y2="165" stroke="#8892b0" stroke-dasharray="3,3"/>
    
    <text x="20" y="190" font-family="Segoe UI, Arial" font-size="13" fill="#ffd93d">After each direction:</text>
    <text x="20" y="212" font-family="Consolas" font-size="12" fill="#8892b0">Shrink the boundary by 1</text>
  </g>
  
  <!-- Direction Steps -->
  <g transform="translate(600, 90)">
    <rect x="0" y="0" width="270" height="230" rx="10" fill="rgba(255, 107, 107, 0.05)" stroke="#ff6b6b" stroke-width="1"/>
    <text x="135" y="25" text-anchor="middle" font-family="Segoe UI, Arial" font-size="16" font-weight="bold" fill="#ff6b6b">Direction Sequence</text>
    
    <g transform="translate(20, 45)">
      <rect x="0" y="0" width="30" height="25" rx="5" fill="#00ff88"/>
      <text x="15" y="17" text-anchor="middle" font-family="Consolas" font-size="12" font-weight="bold" fill="#0f0f23">1</text>
      <text x="40" y="17" font-family="Segoe UI, Arial" font-size="13" fill="#00ff88">→ Right</text>
      <text x="110" y="17" font-family="Consolas" font-size="11" fill="#8892b0">then top++</text>
    </g>
    
    <g transform="translate(20, 80)">
      <rect x="0" y="0" width="30" height="25" rx="5" fill="#ff6b6b"/>
      <text x="15" y="17" text-anchor="middle" font-family="Consolas" font-size="12" font-weight="bold" fill="white">2</text>
      <text x="40" y="17" font-family="Segoe UI, Arial" font-size="13" fill="#ff6b6b">↓ Down</text>
      <text x="110" y="17" font-family="Consolas" font-size="11" fill="#8892b0">then right--</text>
    </g>
    
    <g transform="translate(20, 115)">
      <rect x="0" y="0" width="30" height="25" rx="5" fill="#4ecdc4"/>
      <text x="15" y="17" text-anchor="middle" font-family="Consolas" font-size="12" font-weight="bold" fill="#0f0f23">3</text>
      <text x="40" y="17" font-family="Segoe UI, Arial" font-size="13" fill="#4ecdc4">← Left</text>
      <text x="110" y="17" font-family="Consolas" font-size="11" fill="#8892b0">then bottom--</text>
    </g>
    
    <g transform="translate(20, 150)">
      <rect x="0" y="0" width="30" height="25" rx="5" fill="#ffd93d"/>
      <text x="15" y="17" text-anchor="middle" font-family="Consolas" font-size="12" font-weight="bold" fill="#0f0f23">4</text>
      <text x="40" y="17" font-family="Segoe UI, Arial" font-size="13" fill="#ffd93d">↑ Up</text>
      <text x="110" y="17" font-family="Consolas" font-size="11" fill="#8892b0">then left++</text>
    </g>
    
    <g transform="translate(20, 190)">
      <text x="0" y="15" font-family="Segoe UI, Arial" font-size="12" fill="#64ffda">🔄 Repeat until top > bottom</text>
      <text x="0" y="32" font-family="Segoe UI, Arial" font-size="12" fill="#64ffda">   or left > right</text>
    </g>
  </g>
  
  <!-- Output and Complexity -->
  <g transform="translate(80, 350)">
    <rect x="0" y="0" width="790" height="180" rx="10" fill="rgba(100, 255, 218, 0.03)" stroke="#64ffda" stroke-width="1"/>
    
    <text x="395" y="30" text-anchor="middle" font-family="Segoe UI, Arial" font-size="18" font-weight="bold" fill="#64ffda">Spiral Output Order</text>
    
    <!-- Output array -->
    <g transform="translate(20, 50)">
      <text x="0" y="20" font-family="Consolas" font-size="14" fill="#ffd93d">Result:</text>
      <g transform="translate(70, 0)">
        <rect x="0" y="0" width="700" height="35" rx="5" fill="rgba(0, 0, 0, 0.3)"/>
        <text x="10" y="23" font-family="Consolas" font-size="14" fill="white">
          [1, 2, 3, 4, 5, 6, 7, 8, 9, 10, 11, 12, 13, 14, 15, 16]
        </text>
      </g>
    </g>
    
    <!-- Complexity -->
    <g transform="translate(20, 100)">
      <rect x="0" y="0" width="240" height="60" rx="8" fill="rgba(0, 255, 136, 0.1)" stroke="#00ff88"/>
      <text x="120" y="22" text-anchor="middle" font-family="Segoe UI, Arial" font-size="14" font-weight="bold" fill="#00ff88">Time Complexity</text>
      <text x="120" y="45" text-anchor="middle" font-family="Consolas" font-size="16" fill="white">O(m × n)</text>
    </g>
    
    <g transform="translate(280, 100)">
      <rect x="0" y="0" width="240" height="60" rx="8" fill="rgba(255, 107, 107, 0.1)" stroke="#ff6b6b"/>
      <text x="120" y="22" text-anchor="middle" font-family="Segoe UI, Arial" font-size="14" font-weight="bold" fill="#ff6b6b">Space Complexity</text>
      <text x="120" y="45" text-anchor="middle" font-family="Consolas" font-size="16" fill="white">O(1)</text>
    </g>
    
    <g transform="translate(540, 100)">
      <rect x="0" y="0" width="230" height="60" rx="8" fill="rgba(255, 217, 61, 0.1)" stroke="#ffd93d"/>
      <text x="115" y="22" text-anchor="middle" font-family="Segoe UI, Arial" font-size="14" font-weight="bold" fill="#ffd93d">Layers Count</text>
      <text x="115" y="45" text-anchor="middle" font-family="Consolas" font-size="16" fill="white">⌈min(m,n)/2⌉</text>
    </g>
  </g>
</svg>

