<svg xmlns="http://www.w3.org/2000/svg" viewBox="0 0 600 320">
  <defs>
    <linearGradient id="nodeGrad2" x1="0%" y1="0%" x2="0%" y2="100%">
      <stop offset="0%" style="stop-color:#667eea;stop-opacity:1" />
      <stop offset="100%" style="stop-color:#764ba2;stop-opacity:1" />
    </linearGradient>
    <linearGradient id="leafGrad" x1="0%" y1="0%" x2="0%" y2="100%">
      <stop offset="0%" style="stop-color:#43e97b;stop-opacity:1" />
      <stop offset="100%" style="stop-color:#38f9d7;stop-opacity:1" />
    </linearGradient>
  </defs>
  
  <!-- Background -->
  <rect width="600" height="320" fill="#0f0f23" rx="10"/>
  
  <!-- Title -->
  <text x="300" y="25" font-family="Arial, sans-serif" font-size="18" font-weight="bold" fill="#fff" text-anchor="middle">Backtracking - Subsets of [1,2,3]</text>
  
  <!-- Decision Tree -->
  <g transform="translate(300, 55)">
    <!-- Root -->
    <circle cx="0" cy="0" r="20" fill="url(#nodeGrad2)"/>
    <text x="0" y="6" font-family="Arial" font-size="12" fill="#fff" text-anchor="middle">{ }</text>
    
    <!-- Level 1 -->
    <line x1="-10" y1="20" x2="-100" y2="50" stroke="#555" stroke-width="2"/>
    <line x1="10" y1="20" x2="100" y2="50" stroke="#555" stroke-width="2"/>
    <text x="-60" y="35" font-family="Arial" font-size="10" fill="#43e97b">+1</text>
    <text x="60" y="35" font-family="Arial" font-size="10" fill="#f5576c">skip</text>
    
    <circle cx="-100" cy="65" r="18" fill="url(#nodeGrad2)"/>
    <text x="-100" y="70" font-family="Arial" font-size="10" fill="#fff" text-anchor="middle">{1}</text>
    
    <circle cx="100" cy="65" r="18" fill="url(#nodeGrad2)"/>
    <text x="100" y="70" font-family="Arial" font-size="10" fill="#fff" text-anchor="middle">{ }</text>
    
    <!-- Level 2 - Left branch -->
    <line x1="-110" y1="83" x2="-160" y2="110" stroke="#555" stroke-width="2"/>
    <line x1="-90" y1="83" x2="-40" y2="110" stroke="#555" stroke-width="2"/>
    
    <circle cx="-160" cy="125" r="16" fill="url(#nodeGrad2)"/>
    <text x="-160" y="129" font-family="Arial" font-size="9" fill="#fff" text-anchor="middle">{1,2}</text>
    
    <circle cx="-40" cy="125" r="16" fill="url(#nodeGrad2)"/>
    <text x="-40" y="129" font-family="Arial" font-size="9" fill="#fff" text-anchor="middle">{1}</text>
    
    <!-- Level 2 - Right branch -->
    <line x1="90" y1="83" x2="40" y2="110" stroke="#555" stroke-width="2"/>
    <line x1="110" y1="83" x2="160" y2="110" stroke="#555" stroke-width="2"/>
    
    <circle cx="40" cy="125" r="16" fill="url(#nodeGrad2)"/>
    <text x="40" y="129" font-family="Arial" font-size="9" fill="#fff" text-anchor="middle">{2}</text>
    
    <circle cx="160" cy="125" r="16" fill="url(#nodeGrad2)"/>
    <text x="160" y="129" font-family="Arial" font-size="9" fill="#fff" text-anchor="middle">{ }</text>
    
    <!-- Leaves (Level 3) -->
    <line x1="-170" y1="141" x2="-200" y2="165" stroke="#555" stroke-width="2"/>
    <line x1="-150" y1="141" x2="-120" y2="165" stroke="#555" stroke-width="2"/>
    
    <circle cx="-200" cy="180" r="14" fill="url(#leafGrad)"/>
    <text x="-200" y="184" font-family="Arial" font-size="8" fill="#0f0f23" text-anchor="middle">{1,2,3}</text>
    
    <circle cx="-120" cy="180" r="14" fill="url(#leafGrad)"/>
    <text x="-120" y="184" font-family="Arial" font-size="8" fill="#0f0f23" text-anchor="middle">{1,2}</text>
    
    <line x1="-50" y1="141" x2="-80" y2="165" stroke="#555" stroke-width="2"/>
    <line x1="-30" y1="141" x2="0" y2="165" stroke="#555" stroke-width="2"/>
    
    <circle cx="-80" cy="180" r="14" fill="url(#leafGrad)"/>
    <text x="-80" y="184" font-family="Arial" font-size="8" fill="#0f0f23" text-anchor="middle">{1,3}</text>
    
    <circle cx="0" cy="180" r="14" fill="url(#leafGrad)"/>
    <text x="0" y="184" font-family="Arial" font-size="8" fill="#0f0f23" text-anchor="middle">{1}</text>
    
    <line x1="30" y1="141" x2="0" y2="165" stroke="#555" stroke-width="2" opacity="0"/>
    <line x1="50" y1="141" x2="80" y2="165" stroke="#555" stroke-width="2"/>
    
    <circle cx="80" cy="180" r="14" fill="url(#leafGrad)"/>
    <text x="80" y="184" font-family="Arial" font-size="8" fill="#0f0f23" text-anchor="middle">{2,3}</text>
    
    <circle cx="40" cy="180" r="14" fill="url(#leafGrad)"/>
    <text x="40" y="184" font-family="Arial" font-size="8" fill="#0f0f23" text-anchor="middle">{2}</text>
    
    <circle cx="160" cy="180" r="14" fill="url(#leafGrad)"/>
    <text x="160" y="184" font-family="Arial" font-size="8" fill="#0f0f23" text-anchor="middle">{3}</text>
    
    <circle cx="200" cy="180" r="14" fill="url(#leafGrad)"/>
    <text x="200" y="184" font-family="Arial" font-size="8" fill="#0f0f23" text-anchor="middle">{ }</text>
  </g>
  
  <!-- Legend -->
  <g transform="translate(50, 270)">
    <text x="0" y="0" font-family="Arial" font-size="13" fill="#888">All 2³ = 8 subsets:</text>
    <rect x="0" y="10" width="500" height="30" fill="#1a2744" rx="5"/>
    <text x="250" y="30" font-family="monospace" font-size="12" fill="#43e97b" text-anchor="middle">{ }, {1}, {2}, {3}, {1,2}, {1,3}, {2,3}, {1,2,3}</text>
  </g>
</svg>

