<svg xmlns="http://www.w3.org/2000/svg" viewBox="0 0 500 300">
  <defs>
    <linearGradient id="trieGrad" x1="0%" y1="0%" x2="0%" y2="100%">
      <stop offset="0%" style="stop-color:#667eea;stop-opacity:1" />
      <stop offset="100%" style="stop-color:#764ba2;stop-opacity:1" />
    </linearGradient>
    <linearGradient id="wordEndGrad" x1="0%" y1="0%" x2="0%" y2="100%">
      <stop offset="0%" style="stop-color:#43e97b;stop-opacity:1" />
      <stop offset="100%" style="stop-color:#38f9d7;stop-opacity:1" />
    </linearGradient>
  </defs>
  
  <!-- Background -->
  <rect width="500" height="300" fill="#1a1a2e" rx="10"/>
  
  <!-- Title -->
  <text x="250" y="25" font-family="Arial, sans-serif" font-size="18" font-weight="bold" fill="#fff" text-anchor="middle">Trie (Prefix Tree)</text>
  <text x="250" y="45" font-family="Arial" font-size="12" fill="#888" text-anchor="middle">Words: "app", "apple", "apt", "bat"</text>
  
  <!-- Trie Structure -->
  <g transform="translate(250, 75)">
    <!-- Root -->
    <circle cx="0" cy="0" r="18" fill="url(#trieGrad)"/>
    <text x="0" y="5" font-family="Arial" font-size="12" fill="#fff" text-anchor="middle">root</text>
    
    <!-- Level 1 -->
    <line x1="-10" y1="18" x2="-80" y2="50" stroke="#4facfe" stroke-width="2"/>
    <text x="-55" y="35" font-family="monospace" font-size="11" fill="#4facfe">a</text>
    
    <line x1="10" y1="18" x2="80" y2="50" stroke="#f5576c" stroke-width="2"/>
    <text x="55" y="35" font-family="monospace" font-size="11" fill="#f5576c">b</text>
    
    <!-- 'a' node -->
    <circle cx="-80" cy="65" r="16" fill="url(#trieGrad)"/>
    <text x="-80" y="70" font-family="monospace" font-size="14" fill="#fff" text-anchor="middle">a</text>
    
    <!-- 'b' node -->
    <circle cx="80" cy="65" r="16" fill="url(#trieGrad)"/>
    <text x="80" y="70" font-family="monospace" font-size="14" fill="#fff" text-anchor="middle">b</text>
    
    <!-- Level 2 from 'a' -->
    <line x1="-80" y1="81" x2="-80" y2="110" stroke="#4facfe" stroke-width="2"/>
    <text x="-70" y="100" font-family="monospace" font-size="11" fill="#4facfe">p</text>
    
    <!-- 'p' node -->
    <circle cx="-80" cy="125" r="16" fill="url(#trieGrad)"/>
    <text x="-80" y="130" font-family="monospace" font-size="14" fill="#fff" text-anchor="middle">p</text>
    
    <!-- Level 2 from 'b' -->
    <line x1="80" y1="81" x2="80" y2="110" stroke="#f5576c" stroke-width="2"/>
    <text x="90" y="100" font-family="monospace" font-size="11" fill="#f5576c">a</text>
    
    <!-- 'a' node (in bat) -->
    <circle cx="80" cy="125" r="16" fill="url(#trieGrad)"/>
    <text x="80" y="130" font-family="monospace" font-size="14" fill="#fff" text-anchor="middle">a</text>
    
    <!-- Level 3 from 'p' -->
    <line x1="-90" y1="141" x2="-130" y2="170" stroke="#4facfe" stroke-width="2"/>
    <text x="-115" y="155" font-family="monospace" font-size="11" fill="#4facfe">p</text>
    
    <line x1="-70" y1="141" x2="-30" y2="170" stroke="#4facfe" stroke-width="2"/>
    <text x="-45" y="155" font-family="monospace" font-size="11" fill="#4facfe">t</text>
    
    <!-- 'p' node (app) - word end -->
    <circle cx="-130" cy="185" r="16" fill="url(#wordEndGrad)"/>
    <text x="-130" y="190" font-family="monospace" font-size="14" fill="#1a1a2e" text-anchor="middle">p</text>
    <text x="-130" y="210" font-family="Arial" font-size="9" fill="#43e97b" text-anchor="middle">"app"</text>
    
    <!-- 't' node (apt) - word end -->
    <circle cx="-30" cy="185" r="16" fill="url(#wordEndGrad)"/>
    <text x="-30" y="190" font-family="monospace" font-size="14" fill="#1a1a2e" text-anchor="middle">t</text>
    <text x="-30" y="210" font-family="Arial" font-size="9" fill="#43e97b" text-anchor="middle">"apt"</text>
    
    <!-- 't' node (bat) from level 2 -->
    <line x1="80" y1="141" x2="80" y2="170" stroke="#f5576c" stroke-width="2"/>
    <text x="90" y="160" font-family="monospace" font-size="11" fill="#f5576c">t</text>
    
    <circle cx="80" cy="185" r="16" fill="url(#wordEndGrad)"/>
    <text x="80" y="190" font-family="monospace" font-size="14" fill="#1a1a2e" text-anchor="middle">t</text>
    <text x="80" y="210" font-family="Arial" font-size="9" fill="#43e97b" text-anchor="middle">"bat"</text>
    
    <!-- Level 4 from 'p' (app) -->
    <line x1="-140" y1="201" x2="-160" y2="225" stroke="#4facfe" stroke-width="2"/>
    <text x="-155" y="215" font-family="monospace" font-size="11" fill="#4facfe">l</text>
    
    <!-- 'l' node -->
    <circle cx="-160" cy="240" r="14" fill="url(#trieGrad)"/>
    <text x="-160" y="244" font-family="monospace" font-size="12" fill="#fff" text-anchor="middle">l</text>
    
    <!-- 'e' node (apple) - word end -->
    <line x1="-160" y1="254" x2="-160" y2="275" stroke="#4facfe" stroke-width="2"/>
    <circle cx="-160" cy="290" r="14" fill="url(#wordEndGrad)"/>
    <text x="-160" y="294" font-family="monospace" font-size="12" fill="#1a1a2e" text-anchor="middle">e</text>
    <text x="-125" y="294" font-family="Arial" font-size="9" fill="#43e97b">"apple"</text>
  </g>
  
  <!-- Legend -->
  <g transform="translate(340, 250)">
    <circle cx="0" cy="0" r="10" fill="url(#wordEndGrad)"/>
    <text x="15" y="5" font-family="Arial" font-size="10" fill="#888">= Word End</text>
    <text x="0" y="25" font-family="monospace" font-size="10" fill="#43e97b">O(m) search</text>
  </g>
</svg>

