<svg xmlns="http://www.w3.org/2000/svg" viewBox="0 0 700 380">
  <!-- Background -->
  <rect width="700" height="380" fill="#1a1a2e"/>
  
  <!-- Title -->
  <text x="350" y="35" fill="#fff" font-family="Arial" font-size="22" font-weight="bold" text-anchor="middle">Character Frequency Array</text>
  <text x="350" y="58" fill="#888" font-family="Arial" font-size="14" text-anchor="middle">Input: "leetcode"</text>
  
  <!-- Input String Section -->
  <text x="40" y="95" fill="#ffd700" font-family="Arial" font-size="14" font-weight="bold">Input String:</text>
  
  <g transform="translate(40, 110)">
    <rect x="0" y="0" width="45" height="45" rx="6" fill="#9b59b6"/>
    <text x="22" y="30" fill="#fff" font-family="monospace" font-size="20" font-weight="bold" text-anchor="middle">l</text>
    <text x="22" y="58" fill="#666" font-family="Arial" font-size="10" text-anchor="middle">0</text>
    
    <rect x="55" y="0" width="45" height="45" rx="6" fill="#f5576c"/>
    <text x="77" y="30" fill="#fff" font-family="monospace" font-size="20" font-weight="bold" text-anchor="middle">e</text>
    <text x="77" y="58" fill="#666" font-family="Arial" font-size="10" text-anchor="middle">1</text>
    
    <rect x="110" y="0" width="45" height="45" rx="6" fill="#f5576c"/>
    <text x="132" y="30" fill="#fff" font-family="monospace" font-size="20" font-weight="bold" text-anchor="middle">e</text>
    <text x="132" y="58" fill="#666" font-family="Arial" font-size="10" text-anchor="middle">2</text>
    
    <rect x="165" y="0" width="45" height="45" rx="6" fill="#9b59b6"/>
    <text x="187" y="30" fill="#fff" font-family="monospace" font-size="20" font-weight="bold" text-anchor="middle">t</text>
    <text x="187" y="58" fill="#666" font-family="Arial" font-size="10" text-anchor="middle">3</text>
    
    <rect x="220" y="0" width="45" height="45" rx="6" fill="#9b59b6"/>
    <text x="242" y="30" fill="#fff" font-family="monospace" font-size="20" font-weight="bold" text-anchor="middle">c</text>
    <text x="242" y="58" fill="#666" font-family="Arial" font-size="10" text-anchor="middle">4</text>
    
    <rect x="275" y="0" width="45" height="45" rx="6" fill="#9b59b6"/>
    <text x="297" y="30" fill="#fff" font-family="monospace" font-size="20" font-weight="bold" text-anchor="middle">o</text>
    <text x="297" y="58" fill="#666" font-family="Arial" font-size="10" text-anchor="middle">5</text>
    
    <rect x="330" y="0" width="45" height="45" rx="6" fill="#9b59b6"/>
    <text x="352" y="30" fill="#fff" font-family="monospace" font-size="20" font-weight="bold" text-anchor="middle">d</text>
    <text x="352" y="58" fill="#666" font-family="Arial" font-size="10" text-anchor="middle">6</text>
    
    <rect x="385" y="0" width="45" height="45" rx="6" fill="#f5576c"/>
    <text x="407" y="30" fill="#fff" font-family="monospace" font-size="20" font-weight="bold" text-anchor="middle">e</text>
    <text x="407" y="58" fill="#666" font-family="Arial" font-size="10" text-anchor="middle">7</text>
  </g>
  
  <!-- Frequency Bar Chart -->
  <text x="40" y="200" fill="#ffd700" font-family="Arial" font-size="14" font-weight="bold">Frequency Array:</text>
  
  <g transform="translate(40, 220)">
    <!-- c: 1 -->
    <rect x="0" y="60" width="55" height="30" rx="4" fill="#4facfe"/>
    <text x="27" y="112" fill="#888" font-family="monospace" font-size="13" text-anchor="middle">c</text>
    <text x="27" y="52" fill="#4facfe" font-family="Arial" font-size="13" font-weight="bold" text-anchor="middle">1</text>
    
    <!-- d: 1 -->
    <rect x="75" y="60" width="55" height="30" rx="4" fill="#4facfe"/>
    <text x="102" y="112" fill="#888" font-family="monospace" font-size="13" text-anchor="middle">d</text>
    <text x="102" y="52" fill="#4facfe" font-family="Arial" font-size="13" font-weight="bold" text-anchor="middle">1</text>
    
    <!-- e: 3 (highlighted - most frequent) -->
    <rect x="150" y="0" width="55" height="90" rx="4" fill="#f5576c"/>
    <text x="177" y="112" fill="#fff" font-family="monospace" font-size="13" font-weight="bold" text-anchor="middle">e</text>
    <text x="177" y="-10" fill="#f5576c" font-family="Arial" font-size="15" font-weight="bold" text-anchor="middle">3</text>
    
    <!-- l: 1 -->
    <rect x="225" y="60" width="55" height="30" rx="4" fill="#4facfe"/>
    <text x="252" y="112" fill="#888" font-family="monospace" font-size="13" text-anchor="middle">l</text>
    <text x="252" y="52" fill="#4facfe" font-family="Arial" font-size="13" font-weight="bold" text-anchor="middle">1</text>
    
    <!-- o: 1 -->
    <rect x="300" y="60" width="55" height="30" rx="4" fill="#4facfe"/>
    <text x="327" y="112" fill="#888" font-family="monospace" font-size="13" text-anchor="middle">o</text>
    <text x="327" y="52" fill="#4facfe" font-family="Arial" font-size="13" font-weight="bold" text-anchor="middle">1</text>
    
    <!-- t: 1 -->
    <rect x="375" y="60" width="55" height="30" rx="4" fill="#4facfe"/>
    <text x="402" y="112" fill="#888" font-family="monospace" font-size="13" text-anchor="middle">t</text>
    <text x="402" y="52" fill="#4facfe" font-family="Arial" font-size="13" font-weight="bold" text-anchor="middle">1</text>
  </g>
  
  <!-- Info Boxes -->
  <rect x="520" y="100" width="150" height="80" rx="8" fill="rgba(255,255,255,0.08)"/>
  <text x="595" y="125" fill="#fff" font-family="Arial" font-size="13" font-weight="bold" text-anchor="middle">Space</text>
  <text x="595" y="150" fill="#38ef7d" font-family="Arial" font-size="12" text-anchor="middle">O(26) = O(1)</text>
  <text x="595" y="170" fill="#888" font-family="Arial" font-size="10" text-anchor="middle">Fixed alphabet</text>
  
  <rect x="520" y="200" width="150" height="80" rx="8" fill="rgba(255,255,255,0.08)"/>
  <text x="595" y="225" fill="#fff" font-family="Arial" font-size="13" font-weight="bold" text-anchor="middle">Formula</text>
  <text x="595" y="250" fill="#ffd700" font-family="monospace" font-size="10" text-anchor="middle">f[c] = count of c</text>
  <text x="595" y="270" fill="#888" font-family="Arial" font-size="10" text-anchor="middle">in string S</text>
  
  <!-- Legend -->
  <g transform="translate(520, 300)">
    <rect x="0" y="0" width="20" height="15" rx="3" fill="#f5576c"/>
    <text x="30" y="12" fill="#888" font-family="Arial" font-size="11">Most frequent</text>
    
    <rect x="0" y="25" width="20" height="15" rx="3" fill="#4facfe"/>
    <text x="30" y="37" fill="#888" font-family="Arial" font-size="11">Unique chars</text>
  </g>
  
  <!-- Complexity -->
  <text x="350" y="365" fill="#888" font-family="Arial" font-size="12" text-anchor="middle">Time: O(n) to count | Space: O(1) for fixed alphabet</text>
</svg>
