<svg xmlns="http://www.w3.org/2000/svg" viewBox="0 0 900 550">
  <rect width="900" height="550" fill="#0f0f23"/>
  
  <!-- Title -->
  <text x="450" y="40" text-anchor="middle" fill="#ffffff" font-family="Courier New, monospace" font-size="26" font-weight="bold">Number of Islands - DFS Flood Fill</text>
  <text x="450" y="65" text-anchor="middle" fill="#888888" font-family="Courier New, monospace" font-size="16">Connected Components in Grid</text>
  
  <!-- Input Grid -->
  <text x="200" y="105" text-anchor="middle" fill="#e94560" font-family="Courier New, monospace" font-size="14" font-weight="bold">INPUT GRID</text>
  
  <g transform="translate(50, 120)">
    <!-- Row 0 -->
    <rect x="0" y="0" width="50" height="50" fill="#0f2f1f" stroke="#4ade80" stroke-width="2"/>
    <text x="25" y="32" text-anchor="middle" fill="#4ade80" font-family="Courier New, monospace" font-size="14">1</text>
    
    <rect x="55" y="0" width="50" height="50" fill="#0f2f1f" stroke="#4ade80" stroke-width="2"/>
    <text x="80" y="32" text-anchor="middle" fill="#4ade80" font-family="Courier New, monospace" font-size="14">1</text>
    
    <rect x="110" y="0" width="50" height="50" fill="#1e3a5f" stroke="#3b82f6" stroke-width="2"/>
    <text x="135" y="32" text-anchor="middle" fill="#3b82f6" font-family="Courier New, monospace" font-size="14">0</text>
    
    <rect x="165" y="0" width="50" height="50" fill="#1e3a5f" stroke="#3b82f6" stroke-width="2"/>
    <text x="190" y="32" text-anchor="middle" fill="#3b82f6" font-family="Courier New, monospace" font-size="14">0</text>
    
    <rect x="220" y="0" width="50" height="50" fill="#0f2f1f" stroke="#4ade80" stroke-width="2"/>
    <text x="245" y="32" text-anchor="middle" fill="#4ade80" font-family="Courier New, monospace" font-size="14">1</text>
    
    <!-- Row 1 -->
    <rect x="0" y="55" width="50" height="50" fill="#0f2f1f" stroke="#4ade80" stroke-width="2"/>
    <text x="25" y="87" text-anchor="middle" fill="#4ade80" font-family="Courier New, monospace" font-size="14">1</text>
    
    <rect x="55" y="55" width="50" height="50" fill="#0f2f1f" stroke="#4ade80" stroke-width="2"/>
    <text x="80" y="87" text-anchor="middle" fill="#4ade80" font-family="Courier New, monospace" font-size="14">1</text>
    
    <rect x="110" y="55" width="50" height="50" fill="#1e3a5f" stroke="#3b82f6" stroke-width="2"/>
    <text x="135" y="87" text-anchor="middle" fill="#3b82f6" font-family="Courier New, monospace" font-size="14">0</text>
    
    <rect x="165" y="55" width="50" height="50" fill="#1e3a5f" stroke="#3b82f6" stroke-width="2"/>
    <text x="190" y="87" text-anchor="middle" fill="#3b82f6" font-family="Courier New, monospace" font-size="14">0</text>
    
    <rect x="220" y="55" width="50" height="50" fill="#1e3a5f" stroke="#3b82f6" stroke-width="2"/>
    <text x="245" y="87" text-anchor="middle" fill="#3b82f6" font-family="Courier New, monospace" font-size="14">0</text>
    
    <!-- Row 2 -->
    <rect x="0" y="110" width="50" height="50" fill="#1e3a5f" stroke="#3b82f6" stroke-width="2"/>
    <text x="25" y="142" text-anchor="middle" fill="#3b82f6" font-family="Courier New, monospace" font-size="14">0</text>
    
    <rect x="55" y="110" width="50" height="50" fill="#1e3a5f" stroke="#3b82f6" stroke-width="2"/>
    <text x="80" y="142" text-anchor="middle" fill="#3b82f6" font-family="Courier New, monospace" font-size="14">0</text>
    
    <rect x="110" y="110" width="50" height="50" fill="#0f2f1f" stroke="#4ade80" stroke-width="2"/>
    <text x="135" y="142" text-anchor="middle" fill="#4ade80" font-family="Courier New, monospace" font-size="14">1</text>
    
    <rect x="165" y="110" width="50" height="50" fill="#1e3a5f" stroke="#3b82f6" stroke-width="2"/>
    <text x="190" y="142" text-anchor="middle" fill="#3b82f6" font-family="Courier New, monospace" font-size="14">0</text>
    
    <rect x="220" y="110" width="50" height="50" fill="#1e3a5f" stroke="#3b82f6" stroke-width="2"/>
    <text x="245" y="142" text-anchor="middle" fill="#3b82f6" font-family="Courier New, monospace" font-size="14">0</text>
    
    <!-- Row 3 -->
    <rect x="0" y="165" width="50" height="50" fill="#1e3a5f" stroke="#3b82f6" stroke-width="2"/>
    <text x="25" y="197" text-anchor="middle" fill="#3b82f6" font-family="Courier New, monospace" font-size="14">0</text>
    
    <rect x="55" y="165" width="50" height="50" fill="#1e3a5f" stroke="#3b82f6" stroke-width="2"/>
    <text x="80" y="197" text-anchor="middle" fill="#3b82f6" font-family="Courier New, monospace" font-size="14">0</text>
    
    <rect x="110" y="165" width="50" height="50" fill="#1e3a5f" stroke="#3b82f6" stroke-width="2"/>
    <text x="135" y="197" text-anchor="middle" fill="#3b82f6" font-family="Courier New, monospace" font-size="14">0</text>
    
    <rect x="165" y="165" width="50" height="50" fill="#0f2f1f" stroke="#4ade80" stroke-width="2"/>
    <text x="190" y="197" text-anchor="middle" fill="#4ade80" font-family="Courier New, monospace" font-size="14">1</text>
    
    <rect x="220" y="165" width="50" height="50" fill="#0f2f1f" stroke="#4ade80" stroke-width="2"/>
    <text x="245" y="197" text-anchor="middle" fill="#4ade80" font-family="Courier New, monospace" font-size="14">1</text>
  </g>
  
  <!-- Legend -->
  <g transform="translate(50, 360)">
    <rect x="0" y="0" width="25" height="25" fill="#0f2f1f" stroke="#4ade80" stroke-width="2"/>
    <text x="35" y="18" fill="#4ade80" font-family="Courier New, monospace" font-size="11">1 = Land</text>
    
    <rect x="130" y="0" width="25" height="25" fill="#1e3a5f" stroke="#3b82f6" stroke-width="2"/>
    <text x="165" y="18" fill="#3b82f6" font-family="Courier New, monospace" font-size="11">0 = Water</text>
  </g>
  
  <!-- Arrow -->
  <text x="380" y="240" fill="#3b82f6" font-family="Courier New, monospace" font-size="40">→</text>
  
  <!-- Result Grid -->
  <text x="650" y="105" text-anchor="middle" fill="#e94560" font-family="Courier New, monospace" font-size="14" font-weight="bold">IDENTIFIED ISLANDS</text>
  
  <g transform="translate(500, 120)">
    <!-- Island 1 (Orange) -->
    <rect x="0" y="0" width="50" height="50" fill="#3d1f0f" stroke="#f97316" stroke-width="2"/>
    <text x="25" y="32" text-anchor="middle" fill="#f97316" font-family="Courier New, monospace" font-size="14">1</text>
    
    <rect x="55" y="0" width="50" height="50" fill="#3d1f0f" stroke="#f97316" stroke-width="2"/>
    <text x="80" y="32" text-anchor="middle" fill="#f97316" font-family="Courier New, monospace" font-size="14">1</text>
    
    <rect x="110" y="0" width="50" height="50" fill="#1e3a5f" stroke="#3b82f6" stroke-width="1"/>
    
    <rect x="165" y="0" width="50" height="50" fill="#1e3a5f" stroke="#3b82f6" stroke-width="1"/>
    
    <!-- Island 2 (Purple) -->
    <rect x="220" y="0" width="50" height="50" fill="#2d1f3d" stroke="#a78bfa" stroke-width="2"/>
    <text x="245" y="32" text-anchor="middle" fill="#a78bfa" font-family="Courier New, monospace" font-size="14">2</text>
    
    <!-- Row 1 -->
    <rect x="0" y="55" width="50" height="50" fill="#3d1f0f" stroke="#f97316" stroke-width="2"/>
    <text x="25" y="87" text-anchor="middle" fill="#f97316" font-family="Courier New, monospace" font-size="14">1</text>
    
    <rect x="55" y="55" width="50" height="50" fill="#3d1f0f" stroke="#f97316" stroke-width="2"/>
    <text x="80" y="87" text-anchor="middle" fill="#f97316" font-family="Courier New, monospace" font-size="14">1</text>
    
    <rect x="110" y="55" width="50" height="50" fill="#1e3a5f" stroke="#3b82f6" stroke-width="1"/>
    <rect x="165" y="55" width="50" height="50" fill="#1e3a5f" stroke="#3b82f6" stroke-width="1"/>
    <rect x="220" y="55" width="50" height="50" fill="#1e3a5f" stroke="#3b82f6" stroke-width="1"/>
    
    <!-- Row 2 -->
    <rect x="0" y="110" width="50" height="50" fill="#1e3a5f" stroke="#3b82f6" stroke-width="1"/>
    <rect x="55" y="110" width="50" height="50" fill="#1e3a5f" stroke="#3b82f6" stroke-width="1"/>
    
    <!-- Island 3 (Cyan) -->
    <rect x="110" y="110" width="50" height="50" fill="#0f3f3f" stroke="#22d3d1" stroke-width="2"/>
    <text x="135" y="142" text-anchor="middle" fill="#22d3d1" font-family="Courier New, monospace" font-size="14">3</text>
    
    <rect x="165" y="110" width="50" height="50" fill="#1e3a5f" stroke="#3b82f6" stroke-width="1"/>
    <rect x="220" y="110" width="50" height="50" fill="#1e3a5f" stroke="#3b82f6" stroke-width="1"/>
    
    <!-- Row 3 -->
    <rect x="0" y="165" width="50" height="50" fill="#1e3a5f" stroke="#3b82f6" stroke-width="1"/>
    <rect x="55" y="165" width="50" height="50" fill="#1e3a5f" stroke="#3b82f6" stroke-width="1"/>
    <rect x="110" y="165" width="50" height="50" fill="#1e3a5f" stroke="#3b82f6" stroke-width="1"/>
    
    <!-- Island 4 (Green) -->
    <rect x="165" y="165" width="50" height="50" fill="#0f2f1f" stroke="#4ade80" stroke-width="2"/>
    <text x="190" y="197" text-anchor="middle" fill="#4ade80" font-family="Courier New, monospace" font-size="14">4</text>
    
    <rect x="220" y="165" width="50" height="50" fill="#0f2f1f" stroke="#4ade80" stroke-width="2"/>
    <text x="245" y="197" text-anchor="middle" fill="#4ade80" font-family="Courier New, monospace" font-size="14">4</text>
  </g>
  
  <!-- Island Legend -->
  <g transform="translate(500, 360)">
    <rect x="0" y="0" width="20" height="20" fill="#3d1f0f" stroke="#f97316" stroke-width="2"/>
    <text x="30" y="15" fill="#f97316" font-family="Courier New, monospace" font-size="11">Island 1 (4 cells)</text>
    
    <rect x="160" y="0" width="20" height="20" fill="#2d1f3d" stroke="#a78bfa" stroke-width="2"/>
    <text x="190" y="15" fill="#a78bfa" font-family="Courier New, monospace" font-size="11">Island 2 (1 cell)</text>
  </g>
  
  <g transform="translate(500, 390)">
    <rect x="0" y="0" width="20" height="20" fill="#0f3f3f" stroke="#22d3d1" stroke-width="2"/>
    <text x="30" y="15" fill="#22d3d1" font-family="Courier New, monospace" font-size="11">Island 3 (1 cell)</text>
    
    <rect x="160" y="0" width="20" height="20" fill="#0f2f1f" stroke="#4ade80" stroke-width="2"/>
    <text x="190" y="15" fill="#4ade80" font-family="Courier New, monospace" font-size="11">Island 4 (2 cells)</text>
  </g>
  
  <!-- Result -->
  <rect x="150" y="440" width="600" height="90" fill="#1e3a5f" stroke="#3b82f6" stroke-width="1" rx="5"/>
  <text x="450" y="470" text-anchor="middle" fill="#4ade80" font-family="Courier New, monospace" font-size="18" font-weight="bold">Result: 4 Islands Found</text>
  <text x="450" y="500" text-anchor="middle" fill="#888888" font-family="Courier New, monospace" font-size="12">Algorithm: DFS from each unvisited land cell marks entire component</text>
  <text x="450" y="520" text-anchor="middle" fill="#60a5fa" font-family="Courier New, monospace" font-size="12">Time: O(m×n) | Space: O(m×n) for recursion stack</text>
</svg>
