<svg viewBox="0 0 950 700" xmlns="http://www.w3.org/2000/svg">
  <rect width="950" height="700" fill="#0f0f23"/>
  
  <!-- Title -->
  <text x="475" y="35" font-family="Courier New, monospace" font-size="26" font-weight="bold" fill="#ffffff" text-anchor="middle">Merge Sort: Divide and Conquer</text>
  <text x="475" y="58" font-family="Courier New, monospace" font-size="16" fill="#888888" text-anchor="middle">T(n) = 2T(n/2) + O(n) = O(n log n)</text>
  
  <!-- Original array -->
  <text x="475" y="90" font-family="Courier New, monospace" font-size="12" font-weight="bold" fill="#e94560" text-anchor="middle">DIVIDE PHASE</text>
  
  <!-- Level 0 -->
  <rect x="290" y="100" width="40" height="35" rx="3" fill="#3d1f0f" stroke="#f97316" stroke-width="2"/>
  <text x="310" y="123" font-family="Courier New, monospace" font-size="14" font-weight="bold" fill="#ffffff" text-anchor="middle">38</text>
  <rect x="335" y="100" width="40" height="35" rx="3" fill="#3d1f0f" stroke="#f97316" stroke-width="2"/>
  <text x="355" y="123" font-family="Courier New, monospace" font-size="14" font-weight="bold" fill="#ffffff" text-anchor="middle">27</text>
  <rect x="380" y="100" width="40" height="35" rx="3" fill="#3d1f0f" stroke="#f97316" stroke-width="2"/>
  <text x="400" y="123" font-family="Courier New, monospace" font-size="14" font-weight="bold" fill="#ffffff" text-anchor="middle">43</text>
  <rect x="425" y="100" width="40" height="35" rx="3" fill="#3d1f0f" stroke="#f97316" stroke-width="2"/>
  <text x="445" y="123" font-family="Courier New, monospace" font-size="14" font-weight="bold" fill="#ffffff" text-anchor="middle">3</text>
  <rect x="470" y="100" width="40" height="35" rx="3" fill="#3d1f0f" stroke="#f97316" stroke-width="2"/>
  <text x="490" y="123" font-family="Courier New, monospace" font-size="14" font-weight="bold" fill="#ffffff" text-anchor="middle">9</text>
  <rect x="515" y="100" width="40" height="35" rx="3" fill="#3d1f0f" stroke="#f97316" stroke-width="2"/>
  <text x="535" y="123" font-family="Courier New, monospace" font-size="14" font-weight="bold" fill="#ffffff" text-anchor="middle">82</text>
  <rect x="560" y="100" width="40" height="35" rx="3" fill="#3d1f0f" stroke="#f97316" stroke-width="2"/>
  <text x="580" y="123" font-family="Courier New, monospace" font-size="14" font-weight="bold" fill="#ffffff" text-anchor="middle">10</text>
  
  <!-- Divide arrows level 1 -->
  <line x1="400" y1="140" x2="280" y2="175" stroke="#f97316" stroke-width="2"/>
  <line x1="520" y1="140" x2="640" y2="175" stroke="#f97316" stroke-width="2"/>
  
  <!-- Level 1 -->
  <rect x="170" y="180" width="35" height="30" rx="3" fill="#1e3a5f" stroke="#3b82f6" stroke-width="2"/>
  <text x="187" y="200" font-family="Courier New, monospace" font-size="12" font-weight="bold" fill="#ffffff" text-anchor="middle">38</text>
  <rect x="210" y="180" width="35" height="30" rx="3" fill="#1e3a5f" stroke="#3b82f6" stroke-width="2"/>
  <text x="227" y="200" font-family="Courier New, monospace" font-size="12" font-weight="bold" fill="#ffffff" text-anchor="middle">27</text>
  <rect x="250" y="180" width="35" height="30" rx="3" fill="#1e3a5f" stroke="#3b82f6" stroke-width="2"/>
  <text x="267" y="200" font-family="Courier New, monospace" font-size="12" font-weight="bold" fill="#ffffff" text-anchor="middle">43</text>
  <rect x="290" y="180" width="35" height="30" rx="3" fill="#1e3a5f" stroke="#3b82f6" stroke-width="2"/>
  <text x="307" y="200" font-family="Courier New, monospace" font-size="12" font-weight="bold" fill="#ffffff" text-anchor="middle">3</text>
  
  <rect x="570" y="180" width="35" height="30" rx="3" fill="#1e3a5f" stroke="#3b82f6" stroke-width="2"/>
  <text x="587" y="200" font-family="Courier New, monospace" font-size="12" font-weight="bold" fill="#ffffff" text-anchor="middle">9</text>
  <rect x="610" y="180" width="35" height="30" rx="3" fill="#1e3a5f" stroke="#3b82f6" stroke-width="2"/>
  <text x="627" y="200" font-family="Courier New, monospace" font-size="12" font-weight="bold" fill="#ffffff" text-anchor="middle">82</text>
  <rect x="650" y="180" width="35" height="30" rx="3" fill="#1e3a5f" stroke="#3b82f6" stroke-width="2"/>
  <text x="667" y="200" font-family="Courier New, monospace" font-size="12" font-weight="bold" fill="#ffffff" text-anchor="middle">10</text>
  
  <!-- Divide arrows level 2 -->
  <line x1="210" y1="215" x2="160" y2="250" stroke="#3b82f6" stroke-width="2"/>
  <line x1="280" y1="215" x2="330" y2="250" stroke="#3b82f6" stroke-width="2"/>
  <line x1="600" y1="215" x2="560" y2="250" stroke="#3b82f6" stroke-width="2"/>
  <line x1="660" y1="215" x2="700" y2="250" stroke="#3b82f6" stroke-width="2"/>
  
  <!-- Level 2 -->
  <rect x="120" y="255" width="32" height="28" rx="3" fill="#2d1f3d" stroke="#a78bfa" stroke-width="2"/>
  <text x="136" y="274" font-family="Courier New, monospace" font-size="11" font-weight="bold" fill="#ffffff" text-anchor="middle">38</text>
  <rect x="157" y="255" width="32" height="28" rx="3" fill="#2d1f3d" stroke="#a78bfa" stroke-width="2"/>
  <text x="173" y="274" font-family="Courier New, monospace" font-size="11" font-weight="bold" fill="#ffffff" text-anchor="middle">27</text>
  
  <rect x="290" y="255" width="32" height="28" rx="3" fill="#2d1f3d" stroke="#a78bfa" stroke-width="2"/>
  <text x="306" y="274" font-family="Courier New, monospace" font-size="11" font-weight="bold" fill="#ffffff" text-anchor="middle">43</text>
  <rect x="327" y="255" width="32" height="28" rx="3" fill="#2d1f3d" stroke="#a78bfa" stroke-width="2"/>
  <text x="343" y="274" font-family="Courier New, monospace" font-size="11" font-weight="bold" fill="#ffffff" text-anchor="middle">3</text>
  
  <rect x="530" y="255" width="32" height="28" rx="3" fill="#2d1f3d" stroke="#a78bfa" stroke-width="2"/>
  <text x="546" y="274" font-family="Courier New, monospace" font-size="11" font-weight="bold" fill="#ffffff" text-anchor="middle">9</text>
  <rect x="567" y="255" width="32" height="28" rx="3" fill="#2d1f3d" stroke="#a78bfa" stroke-width="2"/>
  <text x="583" y="274" font-family="Courier New, monospace" font-size="11" font-weight="bold" fill="#ffffff" text-anchor="middle">82</text>
  
  <rect x="680" y="255" width="32" height="28" rx="3" fill="#0f2f1f" stroke="#4ade80" stroke-width="2"/>
  <text x="696" y="274" font-family="Courier New, monospace" font-size="11" font-weight="bold" fill="#4ade80" text-anchor="middle">10</text>
  <text x="696" y="298" font-family="Courier New, monospace" font-size="9" fill="#4ade80" text-anchor="middle">base</text>
  
  <!-- CONQUER PHASE label -->
  <text x="475" y="330" font-family="Courier New, monospace" font-size="12" font-weight="bold" fill="#4ade80" text-anchor="middle">CONQUER PHASE (Merge)</text>
  
  <!-- Merge arrows up -->
  <line x1="155" y1="350" x2="190" y2="385" stroke="#4ade80" stroke-width="2"/>
  <line x1="320" y1="350" x2="350" y2="385" stroke="#4ade80" stroke-width="2"/>
  <line x1="555" y1="350" x2="585" y2="385" stroke="#4ade80" stroke-width="2"/>
  
  <!-- Level 2 merged -->
  <rect x="150" y="390" width="32" height="28" rx="3" fill="#0f2f1f" stroke="#4ade80" stroke-width="2"/>
  <text x="166" y="409" font-family="Courier New, monospace" font-size="11" font-weight="bold" fill="#4ade80" text-anchor="middle">27</text>
  <rect x="187" y="390" width="32" height="28" rx="3" fill="#0f2f1f" stroke="#4ade80" stroke-width="2"/>
  <text x="203" y="409" font-family="Courier New, monospace" font-size="11" font-weight="bold" fill="#4ade80" text-anchor="middle">38</text>
  
  <rect x="310" y="390" width="32" height="28" rx="3" fill="#0f2f1f" stroke="#4ade80" stroke-width="2"/>
  <text x="326" y="409" font-family="Courier New, monospace" font-size="11" font-weight="bold" fill="#4ade80" text-anchor="middle">3</text>
  <rect x="347" y="390" width="32" height="28" rx="3" fill="#0f2f1f" stroke="#4ade80" stroke-width="2"/>
  <text x="363" y="409" font-family="Courier New, monospace" font-size="11" font-weight="bold" fill="#4ade80" text-anchor="middle">43</text>
  
  <rect x="550" y="390" width="32" height="28" rx="3" fill="#0f2f1f" stroke="#4ade80" stroke-width="2"/>
  <text x="566" y="409" font-family="Courier New, monospace" font-size="11" font-weight="bold" fill="#4ade80" text-anchor="middle">9</text>
  <rect x="587" y="390" width="32" height="28" rx="3" fill="#0f2f1f" stroke="#4ade80" stroke-width="2"/>
  <text x="603" y="409" font-family="Courier New, monospace" font-size="11" font-weight="bold" fill="#4ade80" text-anchor="middle">82</text>
  
  <!-- Merge to level 1 -->
  <line x1="200" y1="425" x2="260" y2="460" stroke="#4ade80" stroke-width="2"/>
  <line x1="350" y1="425" x2="290" y2="460" stroke="#4ade80" stroke-width="2"/>
  <line x1="580" y1="425" x2="620" y2="460" stroke="#4ade80" stroke-width="2"/>
  <line x1="696" y1="320" x2="660" y2="460" stroke="#4ade80" stroke-width="2"/>
  
  <!-- Level 1 merged -->
  <rect x="200" y="465" width="32" height="28" rx="3" fill="#0f2f1f" stroke="#4ade80" stroke-width="2"/>
  <text x="216" y="484" font-family="Courier New, monospace" font-size="11" font-weight="bold" fill="#4ade80" text-anchor="middle">3</text>
  <rect x="237" y="465" width="32" height="28" rx="3" fill="#0f2f1f" stroke="#4ade80" stroke-width="2"/>
  <text x="253" y="484" font-family="Courier New, monospace" font-size="11" font-weight="bold" fill="#4ade80" text-anchor="middle">27</text>
  <rect x="274" y="465" width="32" height="28" rx="3" fill="#0f2f1f" stroke="#4ade80" stroke-width="2"/>
  <text x="290" y="484" font-family="Courier New, monospace" font-size="11" font-weight="bold" fill="#4ade80" text-anchor="middle">38</text>
  <rect x="311" y="465" width="32" height="28" rx="3" fill="#0f2f1f" stroke="#4ade80" stroke-width="2"/>
  <text x="327" y="484" font-family="Courier New, monospace" font-size="11" font-weight="bold" fill="#4ade80" text-anchor="middle">43</text>
  
  <rect x="570" y="465" width="32" height="28" rx="3" fill="#0f2f1f" stroke="#4ade80" stroke-width="2"/>
  <text x="586" y="484" font-family="Courier New, monospace" font-size="11" font-weight="bold" fill="#4ade80" text-anchor="middle">9</text>
  <rect x="607" y="465" width="32" height="28" rx="3" fill="#0f2f1f" stroke="#4ade80" stroke-width="2"/>
  <text x="623" y="484" font-family="Courier New, monospace" font-size="11" font-weight="bold" fill="#4ade80" text-anchor="middle">10</text>
  <rect x="644" y="465" width="32" height="28" rx="3" fill="#0f2f1f" stroke="#4ade80" stroke-width="2"/>
  <text x="660" y="484" font-family="Courier New, monospace" font-size="11" font-weight="bold" fill="#4ade80" text-anchor="middle">82</text>
  
  <!-- Final merge -->
  <line x1="280" y1="500" x2="400" y2="535" stroke="#4ade80" stroke-width="2"/>
  <line x1="620" y1="500" x2="500" y2="535" stroke="#4ade80" stroke-width="2"/>
  
  <!-- Final sorted array -->
  <rect x="290" y="545" width="40" height="35" rx="3" fill="#0f2f1f" stroke="#4ade80" stroke-width="3"/>
  <text x="310" y="568" font-family="Courier New, monospace" font-size="14" font-weight="bold" fill="#4ade80" text-anchor="middle">3</text>
  <rect x="335" y="545" width="40" height="35" rx="3" fill="#0f2f1f" stroke="#4ade80" stroke-width="3"/>
  <text x="355" y="568" font-family="Courier New, monospace" font-size="14" font-weight="bold" fill="#4ade80" text-anchor="middle">9</text>
  <rect x="380" y="545" width="40" height="35" rx="3" fill="#0f2f1f" stroke="#4ade80" stroke-width="3"/>
  <text x="400" y="568" font-family="Courier New, monospace" font-size="14" font-weight="bold" fill="#4ade80" text-anchor="middle">10</text>
  <rect x="425" y="545" width="40" height="35" rx="3" fill="#0f2f1f" stroke="#4ade80" stroke-width="3"/>
  <text x="445" y="568" font-family="Courier New, monospace" font-size="14" font-weight="bold" fill="#4ade80" text-anchor="middle">27</text>
  <rect x="470" y="545" width="40" height="35" rx="3" fill="#0f2f1f" stroke="#4ade80" stroke-width="3"/>
  <text x="490" y="568" font-family="Courier New, monospace" font-size="14" font-weight="bold" fill="#4ade80" text-anchor="middle">38</text>
  <rect x="515" y="545" width="40" height="35" rx="3" fill="#0f2f1f" stroke="#4ade80" stroke-width="3"/>
  <text x="535" y="568" font-family="Courier New, monospace" font-size="14" font-weight="bold" fill="#4ade80" text-anchor="middle">43</text>
  <rect x="560" y="545" width="40" height="35" rx="3" fill="#0f2f1f" stroke="#4ade80" stroke-width="3"/>
  <text x="580" y="568" font-family="Courier New, monospace" font-size="14" font-weight="bold" fill="#4ade80" text-anchor="middle">82</text>
  
  <text x="475" y="605" font-family="Courier New, monospace" font-size="14" font-weight="bold" fill="#4ade80" text-anchor="middle">✓ SORTED!</text>
  
  <!-- Complexity box -->
  <rect x="100" y="625" width="350" height="60" rx="6" fill="#1e3a5f" stroke="#3b82f6" stroke-width="2"/>
  <text x="275" y="650" font-family="Courier New, monospace" font-size="12" font-weight="bold" fill="#e94560" text-anchor="middle">Complexity</text>
  <text x="120" y="672" font-family="Courier New, monospace" font-size="11" fill="#60a5fa">Time: O(n log n) | Space: O(n) | Stable: Yes</text>
  
  <!-- Key insight -->
  <rect x="500" y="625" width="350" height="60" rx="6" fill="#2d1f3d" stroke="#a78bfa" stroke-width="2"/>
  <text x="675" y="650" font-family="Courier New, monospace" font-size="12" font-weight="bold" fill="#a78bfa" text-anchor="middle">Key Insight</text>
  <text x="520" y="672" font-family="Courier New, monospace" font-size="11" fill="#ffffff">Merging O(n) × log n levels = O(n log n)</text>
</svg>

